<svg width="70" height="76" viewBox="0 0 70 76" fill="none" xmlns="http://www.w3.org/2000/svg">
<path d="M29.5092 64.3034C24.448 63.8496 19.2561 64.8124 17.2929 65.3505C15.6785 65.7432 12.5982 67.0608 13.1915 69.19C13.9333 71.8515 20.2161 70.6734 21.4377 73.1167C22.6594 75.56 32.1272 75.6037 34.8759 74.6874C37.6246 73.7712 38.5408 72.5059 46.787 72.2441C55.0332 71.9823 56.9965 68.7537 54.2042 67.6629C51.4118 66.5722 43.8638 67.2703 39.4571 67.0957C35.0504 66.9212 35.8358 64.8706 29.5092 64.3034Z" fill="#7BB0FB"/>
<rect x="25.3481" y="53.8948" width="7.01787" height="15.8166" rx="3.50893" fill="#EC6344"/>
<path d="M29.0895 64.4438C32.2489 64.4438 34.8101 67.005 34.8101 70.1644C34.8101 70.2908 34.7076 70.3932 34.5812 70.3932L26.0081 70.3932C25.6435 70.3932 25.3479 70.0977 25.3479 69.7331L25.3479 64.4438L29.0895 64.4438Z" fill="#EC6344"/>
<mask id="mask0_857_18219" style="mask-type:alpha" maskUnits="userSpaceOnUse" x="25" y="53" width="8" height="17">
<rect x="25.3481" y="53.8948" width="7.01787" height="15.8166" rx="3.50893" fill="#EB5A3F"/>
</mask>
<g mask="url(#mask0_857_18219)">
<path d="M33.0146 65.6365C29.4497 64.435 27.3437 66.3833 26.7363 67.5076C27.354 65.6463 31.1792 61.8486 33.0146 60.1824V65.6365Z" fill="#DC543B"/>
</g>
<rect x="35.8872" y="53.8948" width="7.01787" height="15.8166" rx="3.50893" fill="#EC6344"/>
<path fill-rule="evenodd" clip-rule="evenodd" d="M51.3369 37.7052L46.9399 34.9218C45.918 36.5361 45.3978 38.4172 45.445 40.3273C45.4922 42.2373 46.1047 44.0904 47.2051 45.6523C48.3055 47.2142 49.8443 48.4147 51.627 49.102C53.4097 49.7894 55.3562 49.9326 57.2203 49.5137L56.0793 44.4365C55.3488 44.6007 54.5887 44.5781 53.8692 44.371C53.1497 44.1638 52.494 43.7787 51.9627 43.2512C51.4313 42.7237 51.0414 42.0709 50.829 41.3529C50.6166 40.6349 50.5885 39.875 50.7474 39.1434C50.8585 38.6314 51.0586 38.1449 51.3369 37.7052Z" fill="#EC6344"/>
<circle cx="49.0356" cy="36.4483" r="2.61446" transform="rotate(77.3345 49.0356 36.4483)" fill="#EC6344"/>
<circle cx="56.3399" cy="47.0613" r="2.58585" transform="rotate(77.3345 56.3399 47.0613)" fill="#EC6344"/>
<rect x="16.5337" y="0.495605" width="35.4476" height="61.0704" rx="17.7238" fill="#EC6344"/>
<path d="M16.5337 18.164C16.5337 8.3754 24.4689 0.440186 34.2575 0.440186C44.0461 0.440186 51.9813 8.3754 51.9813 18.164V20.9272H16.5337V18.164Z" fill="white"/>
<mask id="mask1_857_18219" style="mask-type:alpha" maskUnits="userSpaceOnUse" x="16" y="0" width="36" height="21">
<path d="M16.5337 18.164C16.5337 8.3754 24.4689 0.440186 34.2575 0.440186C44.0461 0.440186 51.9813 8.3754 51.9813 18.164V20.9272H16.5337V18.164Z" fill="#E5DFD6"/>
</mask>
<g mask="url(#mask1_857_18219)">
<path fill-rule="evenodd" clip-rule="evenodd" d="M16.9186 14.426L19.6991 16.2268C21.4899 17.3866 23.7948 17.3866 25.5855 16.2268C27.3763 15.0671 29.6812 15.0671 31.472 16.2268C33.2628 17.3866 35.5677 17.3866 37.3584 16.2268C39.1492 15.0671 41.4541 15.0671 43.2449 16.2268C45.0357 17.3866 47.3406 17.3866 49.1313 16.2268L51.9119 14.426C51.982 14.3806 52.0746 14.431 52.0746 14.5145V15.7581C52.0746 15.6745 51.982 15.6242 51.9119 15.6696L49.1313 17.4704C47.3406 18.6302 45.0357 18.6302 43.2449 17.4704C41.4541 16.3106 39.1492 16.3106 37.3584 17.4704C35.5677 18.6302 33.2628 18.6302 31.472 17.4704C29.6812 16.3106 27.3763 16.3106 25.5855 17.4704C23.7948 18.6302 21.4899 18.6302 19.6991 17.4704L16.9186 15.6696C16.8484 15.6242 16.7559 15.6745 16.7559 15.7581V14.5145C16.7559 14.431 16.8484 14.3806 16.9186 14.426Z" fill="#3B87F4"/>
<path fill-rule="evenodd" clip-rule="evenodd" d="M16.9186 11.9829L19.6991 13.7837C21.4899 14.9435 23.7948 14.9435 25.5855 13.7837C27.3763 12.6239 29.6812 12.6239 31.472 13.7837C33.2628 14.9435 35.5677 14.9435 37.3584 13.7837C39.1492 12.6239 41.4541 12.6239 43.2449 13.7837C45.0357 14.9435 47.3406 14.9435 49.1313 13.7837L51.9119 11.9829C51.982 11.9375 52.0746 11.9878 52.0746 12.0714V13.315C52.0746 13.2314 51.982 13.1811 51.9119 13.2265L49.1313 15.0273C47.3406 16.1871 45.0357 16.1871 43.2449 15.0273C41.4541 13.8675 39.1492 13.8675 37.3584 15.0273C35.5677 16.1871 33.2628 16.1871 31.472 15.0273C29.6812 13.8675 27.3763 13.8675 25.5855 15.0273C23.7948 16.1871 21.4899 16.1871 19.6991 15.0273L16.9186 13.2265C16.8484 13.1811 16.7559 13.2314 16.7559 13.315V12.0714C16.7559 11.9878 16.8484 11.9375 16.9186 11.9829Z" fill="#3B87F4"/>
</g>
<mask id="mask2_857_18219" style="mask-type:alpha" maskUnits="userSpaceOnUse" x="16" y="-1" width="37" height="63">
<rect x="16.5132" y="-0.237305" width="36.0737" height="61.966" rx="18.0368" fill="#EB5A3F"/>
</mask>
<g mask="url(#mask2_857_18219)">
<path fill-rule="evenodd" clip-rule="evenodd" d="M20.314 34.7795C18.6556 34.7795 17.3112 36.124 17.3112 37.7824C17.3112 38.5666 16.6754 39.2024 15.8912 39.2024H15.5963C14.6491 39.2024 13.8813 39.9702 13.8813 40.9173V63.3947C13.8813 66.1561 16.1199 68.3947 18.8813 68.3947H50.3975C53.1589 68.3947 55.3975 66.1561 55.3975 63.3947V44.2024C55.3975 41.441 53.1589 39.2024 50.3975 39.2024H24.7369C23.9527 39.2024 23.3169 38.5666 23.3169 37.7824C23.3169 36.124 21.9725 34.7795 20.314 34.7795Z" fill="white"/>
</g>
<path fill-rule="evenodd" clip-rule="evenodd" d="M21.3277 40.2696L19.5555 35.3766C17.7591 36.0273 16.196 37.196 15.0638 38.735C13.9316 40.274 13.2812 42.1142 13.1949 44.0229C13.1085 45.9315 13.5901 47.8229 14.5787 49.4578C15.5673 51.0928 17.0185 52.3979 18.7488 53.2081L20.9555 48.4952C20.2775 48.1777 19.6905 47.6945 19.2485 47.0902C18.8065 46.4859 18.5239 45.7799 18.4267 45.0375C18.3296 44.2952 18.4211 43.5403 18.6928 42.8426C18.9644 42.1449 19.4075 41.5269 19.9811 41.0456C20.3823 40.709 20.8384 40.4468 21.3277 40.2696Z" fill="#EC6344"/>
<circle cx="20.278" cy="37.8665" r="2.61446" transform="rotate(115.09 20.278 37.8665)" fill="#EC6344"/>
<circle cx="19.5693" cy="50.6982" r="2.62122" transform="rotate(115.09 19.5693 50.6982)" fill="#EC6344"/>
<ellipse cx="37.6455" cy="38.6308" rx="14.3359" ry="4.81998" fill="#EC6344"/>
<path d="M39.6291 64.4438C42.7884 64.4438 45.3496 67.005 45.3496 70.1644C45.3496 70.2908 45.2472 70.3932 45.1208 70.3932L36.5476 70.3932C36.183 70.3932 35.8875 70.0977 35.8875 69.7331L35.8875 64.4438L39.6291 64.4438Z" fill="#EC6344"/>
<ellipse cx="38.1991" cy="30.3495" rx="1.96522" ry="1.96085" fill="#BF4832"/>
<mask id="mask3_857_18219" style="mask-type:alpha" maskUnits="userSpaceOnUse" x="35" y="53" width="8" height="17">
<rect x="35.8872" y="53.8948" width="7.01787" height="15.8166" rx="3.50893" fill="#EB5A3F"/>
</mask>
<g mask="url(#mask3_857_18219)">
<path d="M43.5541 65.6365C39.9892 64.435 37.8832 66.3833 37.2759 67.5076C37.8935 65.6463 41.7187 61.8486 43.5541 60.1824V65.6365Z" fill="#DC543B"/>
</g>
<path d="M37.6992 23.8456C37.6992 24.8123 37.1592 25.732 36.1972 26.4289C35.2357 27.1254 33.8826 27.5716 32.3654 27.5716C30.8483 27.5716 29.4952 27.1254 28.5337 26.4289C27.5717 25.732 27.0317 24.8123 27.0317 23.8456C27.0317 22.8789 27.5717 21.9592 28.5337 21.2623C29.4952 20.5658 30.8483 20.1196 32.3654 20.1196C33.8826 20.1196 35.2357 20.5658 36.1972 21.2623C37.1592 21.9592 37.6992 22.8789 37.6992 23.8456Z" fill="#8B8B8B" stroke="black"/>
<path d="M49.3666 23.8456C49.3666 24.8123 48.8267 25.732 47.8647 26.4289C46.9032 27.1254 45.5501 27.5716 44.0329 27.5716C42.5157 27.5716 41.1626 27.1254 40.2012 26.4289C39.2392 25.732 38.6992 24.8123 38.6992 23.8456C38.6992 22.8789 39.2392 21.9592 40.2012 21.2623C41.1626 20.5658 42.5157 20.1196 44.0329 20.1196C45.5501 20.1196 46.9032 20.5658 47.8647 21.2623C48.8267 21.9592 49.3666 22.8789 49.3666 23.8456Z" fill="#8B8B8B" stroke="black"/>
<circle cx="34.5504" cy="23.0348" r="1.28575" fill="black"/>
<circle cx="41.7379" cy="23.0348" r="1.28575" fill="black"/>
<ellipse cx="18.5391" cy="73.4321" rx="1.73827" ry="0.712138" fill="#7BB0FB"/>
<ellipse cx="16.0841" cy="74.8644" rx="0.67197" ry="0.372992" fill="#7BB0FB"/>
</svg>
